<?xml version="1.0" encoding="UTF-8"?>
<svg version="1.1" xmlns="http://www.w3.org/2000/svg" width="1600" height="1600">
<path d="M0 0 C18.60179403 15.2986165 34.6195949 38.1667078 37.32617188 62.65478516 C38.04926184 70.35898004 36.70811483 77.00247263 32.45117188 83.52978516 C28.16336921 87.81758782 23.75711511 89.2681828 17.88867188 90.27978516 C16.61121094 90.51955078 15.33375 90.75931641 14.01757812 91.00634766 C1.87172248 92.84961383 -10.37833544 92.81370355 -22.63061523 92.78515625 C-25.33973881 92.77982762 -28.04869413 92.78511737 -30.7578125 92.79150391 C-42.42659699 92.79547464 -54.02858387 92.38746337 -65.67382812 91.65478516 C-55.36889337 106.99711978 -39.22847133 113.88757631 -22.67382812 120.65478516 C-8.42370322 126.48156679 4.30471784 132.84735431 16.32617188 142.65478516 C17.14988281 143.31349609 17.97359375 143.97220703 18.82226562 144.65087891 C29.49887049 153.59906208 35.81768093 164.45649223 37.16064453 178.38671875 C39.35213858 208.41471248 33.68725327 234.45340832 13.85986328 257.80834961 C-5.15729778 279.22737619 -34.44251097 291.55462379 -62.67382812 293.65478516 C-92.08830157 295.30669091 -120.91164336 288.18847066 -143.31152344 268.19287109 C-160.15803844 252.71519655 -174.94417285 230.57696149 -176.87695312 207.19775391 C-177.01373177 200.32462698 -176.43863866 194.22340026 -172.11523438 188.64306641 C-161.35065541 177.96800577 -143.36228038 179.49923445 -129.27929688 179.52197266 C-127.79958582 179.5212978 -126.31987487 179.52032627 -124.84016418 179.51907349 C-121.75646904 179.51760735 -118.67280306 179.51971752 -115.58911133 179.52441406 C-111.64044748 179.53013588 -107.69185124 179.52681006 -103.74318981 179.5208416 C-100.69514964 179.51722799 -97.64712551 179.51837783 -94.59908485 179.52096939 C-93.14265243 179.52163514 -91.68621854 179.52082254 -90.22978783 179.51848984 C-88.19835819 179.51594748 -86.16692341 179.52051015 -84.13549805 179.52539062 C-82.98127853 179.52618622 -81.82705902 179.52698181 -80.63786316 179.52780151 C-78.12702041 179.63536973 -76.06226566 179.9186975 -73.67382812 180.65478516 C-83.6124545 162.83797934 -105.07358217 157.30099726 -123.15551758 150.73779297 C-144.34554022 142.92861577 -162.91720343 130.41406764 -172.87548828 109.50976562 C-181.64051734 89.14380514 -178.99685714 59.49418151 -170.97851562 39.24853516 C-166.90285839 29.63557647 -161.50088697 21.51524743 -154.67382812 13.65478516 C-154.02800781 12.90841797 -153.3821875 12.16205078 -152.71679688 11.39306641 C-114.92994273 -29.09853098 -42.71667875 -34.00506517 0 0 Z M-127.67382812 0.65478516 C-128.66769531 1.20908203 -129.6615625 1.76337891 -130.68554688 2.33447266 C-149.83059207 13.75049105 -163.37296521 31.83985335 -169.11132812 53.34228516 C-171.91209633 65.07641639 -172.04646543 78.71284065 -170.67382812 90.65478516 C-170.01382813 91.31478516 -169.35382813 91.97478516 -168.67382812 92.65478516 C-167.67416016 92.14818359 -167.67416016 92.14818359 -166.65429688 91.63134766 C-153.39435314 85.21464761 -140.15209014 85.15076795 -125.67382812 84.65478516 C-125.43599609 83.04023437 -125.43599609 83.04023437 -125.19335938 81.39306641 C-122.69415919 65.35760783 -118.50632009 49.85265206 -104.79882812 39.71728516 C-99.99517808 36.64236062 -95.09449466 34.40594204 -89.67382812 32.65478516 C-89.00351563 32.42919922 -88.33320313 32.20361328 -87.64257812 31.97119141 C-82.43974274 30.52040077 -77.22699827 30.45228398 -71.86132812 30.40478516 C-71.11939209 30.39543945 -70.37745605 30.38609375 -69.61303711 30.37646484 C-65.84374181 30.39876075 -62.81346044 30.43673645 -59.67382812 32.65478516 C-56.63089194 37.2916403 -57.7933546 42.46453435 -58.67382812 47.65478516 C-59.82710056 52.00937688 -61.23151641 56.26336659 -62.67382812 60.52978516 C-63.40386954 62.73522496 -64.13307241 64.94094256 -64.86132812 67.14697266 C-65.18488281 68.10974121 -65.5084375 69.07250977 -65.84179688 70.06445312 C-67.10689463 74.00303506 -67.79740489 77.25156532 -67.73632812 81.40478516 C-67.72730469 82.20400391 -67.71828125 83.00322266 -67.70898438 83.82666016 C-67.69738281 84.42994141 -67.68578125 85.03322266 -67.67382812 85.65478516 C-54.58306419 86.57343526 -41.48939883 86.78826896 -28.37078857 86.83203125 C-26.5601031 86.83875959 -24.74942641 86.84889897 -22.93878174 86.86279297 C-13.22828157 86.93120688 -3.60159411 86.72795652 6.07226562 85.83056641 C7.26868431 85.72653755 7.26868431 85.72653755 8.48927307 85.6204071 C15.27942013 84.91258913 21.82302191 83.62535002 27.26367188 79.34228516 C31.20300033 74.2092208 32.08191458 68.99904632 31.32617188 62.65478516 C27.2688093 39.06411987 12.11673487 17.03753425 -6.73632812 2.65478516 C-43.4691241 -23.09864894 -89.39635647 -21.01581757 -127.67382812 0.65478516 Z M-106.67382812 48.65478516 C-115.35603846 59.34058249 -119.67382812 70.89402818 -119.67382812 84.65478516 C-104.49382812 84.65478516 -89.31382812 84.65478516 -73.67382812 84.65478516 C-73.01382813 80.03478516 -72.35382813 75.41478516 -71.67382812 70.65478516 C-70.40849546 66.43442201 -69.10597995 62.34829958 -67.61132812 58.21728516 C-63.23217252 47.63743017 -63.23217252 47.63743017 -63.67382812 36.65478516 C-76.43131574 30.27604135 -97.47059741 39.45155444 -106.67382812 48.65478516 Z M-166.67382812 98.65478516 C-168.30454314 102.36095565 -168.14938922 104.39836449 -166.72460938 108.16259766 C-156.1412978 129.4505195 -136.41920075 139.07728217 -115.33398438 147.06103516 C-113.05142566 147.92560099 -110.76887367 148.79018457 -108.48632812 149.65478516 C-106.79685059 150.2916626 -106.79685059 150.2916626 -105.07324219 150.94140625 C-97.98342733 153.6514812 -91.33373346 156.62163445 -84.79882812 160.47509766 C-82.78747371 161.81657515 -82.78747371 161.81657515 -80.67382812 161.65478516 C-84.79670035 149.90247413 -95.62981498 139.94183897 -103.67382812 130.65478516 C-112.69563516 120.23424834 -119.44663293 109.83722327 -123.67382812 96.65478516 C-124.33978878 94.65454996 -125.00628701 92.65449346 -125.67382812 90.65478516 C-147.67726485 89.3554969 -147.67726485 89.3554969 -166.67382812 98.65478516 Z M-118.67382812 90.65478516 C-116.75576399 104.83424427 -108.935849 116.68136735 -99.21289062 126.94775391 C-95.11544966 131.31625635 -91.40484517 135.97347489 -87.67382812 140.65478516 C-86.84753906 141.66283203 -86.02125 142.67087891 -85.16992188 143.70947266 C-75.83889752 155.25614776 -70.3379365 165.99835167 -66.67382812 180.65478516 C-51.49382812 180.65478516 -36.31382812 180.65478516 -20.67382812 180.65478516 C-22.87527102 174.42734697 -22.87527102 174.42734697 -25.80273438 168.86572266 C-26.19267578 168.24157471 -26.58261719 167.61742676 -26.984375 166.97436523 C-27.6040918 166.0117981 -27.6040918 166.0117981 -28.23632812 165.02978516 C-28.67396484 164.34102295 -29.11160156 163.65226074 -29.5625 162.94262695 C-35.49860065 153.6913542 -41.944438 144.84105089 -48.67382812 136.15478516 C-50.34429453 133.99101785 -52.01053667 131.82407211 -53.67382812 129.65478516 C-54.10228027 129.09823242 -54.53073242 128.54167969 -54.97216797 127.96826172 C-63.39304011 116.93965592 -70.28214689 105.52653635 -72.67382812 91.65478516 C-73.65460532 90.4542806 -73.65460532 90.4542806 -75.50245667 90.53453064 C-76.698256 90.53786156 -76.698256 90.53786156 -77.91821289 90.54125977 C-79.26950035 90.54137306 -79.26950035 90.54137306 -80.64808655 90.54148865 C-82.11682472 90.54923058 -82.11682472 90.54923058 -83.61523438 90.55712891 C-84.61264145 90.55854385 -85.61004852 90.5599588 -86.63768005 90.56141663 C-89.83725936 90.56703401 -93.03676981 90.57958945 -96.23632812 90.59228516 C-98.39973858 90.59729792 -100.56315012 90.60186121 -102.7265625 90.60595703 C-108.04234138 90.61700909 -113.35807983 90.63376412 -118.67382812 90.65478516 Z M-60.67382812 108.65478516 C-57.41182837 114.95935942 -53.6967007 120.4589672 -49.23632812 125.96728516 C-21.02624807 161.57242279 -21.02624807 161.57242279 -15.62304688 178.89697266 C-14.82358214 180.82687064 -14.82358214 180.82687064 -12.80273438 181.40087891 C0.26175365 182.95902885 15.96036884 181.29683836 27.01367188 173.84228516 C28.52382671 171.32536043 28.80410541 169.65445543 28.18554688 166.77197266 C19.91182812 146.38853826 -4.76175912 134.78905049 -23.67382812 126.65478516 C-27.25068663 125.18186953 -30.84627709 123.7561116 -34.44165039 122.32910156 C-41.07272991 119.62844941 -47.20973335 116.18465177 -53.38085938 112.57275391 C-55.79126731 111.1688271 -58.1747824 109.88067437 -60.67382812 108.65478516 Z M29.32617188 178.65478516 C28.70871094 178.99251953 28.09125 179.33025391 27.45507812 179.67822266 C26.60816406 180.12423828 25.76125 180.57025391 24.88867188 181.02978516 C24.06496094 181.47064453 23.24125 181.91150391 22.39257812 182.36572266 C14.9659523 185.4877437 7.42777438 186.00939185 -0.54882812 186.27978516 C-1.4846875 186.31845703 -2.42054688 186.35712891 -3.38476562 186.39697266 C-6.81737735 186.53506623 -10.23818914 186.65478516 -13.67382812 186.65478516 C-13.83238281 187.81494141 -13.9909375 188.97509766 -14.15429688 190.17041016 C-16.4448034 205.90350621 -20.71723544 220.61153793 -33.47851562 231.09228516 C-45.36480623 239.55227847 -60.23153883 242.8998101 -74.67382812 241.65478516 C-77.95461265 240.38264422 -79.12459652 239.47863256 -81.04882812 236.59228516 C-82.89384946 227.9206849 -79.54565071 219.43058267 -76.67382812 211.34228516 C-75.9420601 209.24292968 -75.21279798 207.14269866 -74.48632812 205.04150391 C-74.16277344 204.1258667 -73.83921875 203.21022949 -73.50585938 202.2668457 C-72.23005595 198.26161659 -71.54013464 194.54270057 -71.61132812 190.34228516 C-71.63195312 189.12541016 -71.65257812 187.90853516 -71.67382812 186.65478516 C-76.39916158 185.74743957 -81.04344958 185.43291393 -85.84179688 185.30322266 C-87.01849442 185.26774574 -87.01849442 185.26774574 -88.21896362 185.23155212 C-90.76629252 185.15798198 -93.31371377 185.0926594 -95.86132812 185.02978516 C-96.73087128 185.00765961 -97.60041443 184.98553406 -98.49630737 184.96273804 C-134.23803486 181.72907665 -134.23803486 181.72907665 -166.16210938 192.04150391 C-170.2998606 196.6687919 -171.00417234 200.18139866 -170.88085938 206.27978516 C-169.07389656 227.0087171 -156.58677526 245.06821302 -142.67382812 259.65478516 C-142.13628906 260.26708984 -141.59875 260.87939453 -141.04492188 261.51025391 C-135.57506741 267.50104689 -128.59166894 271.54884317 -121.67382812 275.65478516 C-120.83851563 276.15236328 -120.00320312 276.64994141 -119.14257812 277.16259766 C-95.4078947 290.08662048 -65.54055391 290.55747673 -40.00195312 283.40087891 C-24.81851274 278.81042413 -11.99899114 271.57869875 0.32617188 261.65478516 C0.95652344 261.18943359 1.586875 260.72408203 2.23632812 260.24462891 C17.62376887 248.3493733 26.44174876 229.2210109 30.32617188 210.65478516 C30.51953125 209.76404297 30.71289062 208.87330078 30.91210938 207.95556641 C31.53847815 202.96234364 31.51053569 197.9945913 31.51367188 192.96728516 C31.52591797 191.9225 31.53816406 190.87771484 31.55078125 189.80126953 C31.55271484 188.8003125 31.55464844 187.79935547 31.55664062 186.76806641 C31.56074951 185.85839111 31.5648584 184.94871582 31.5690918 184.01147461 C31.48358731 181.3855727 31.48358731 181.3855727 29.32617188 178.65478516 Z M-65.67382812 186.65478516 C-66.33382812 191.27478516 -66.99382812 195.89478516 -67.67382812 200.65478516 C-68.74291992 204.8269043 -68.74291992 204.8269043 -69.87304688 208.18994141 C-70.27716797 209.43066406 -70.68128906 210.67138672 -71.09765625 211.94970703 C-71.73576123 213.85218696 -72.37390391 215.75465494 -73.01391602 217.65649414 C-73.64316373 219.53948286 -74.25830734 221.42716639 -74.87304688 223.31494141 C-75.24260498 224.41459229 -75.61216309 225.51424316 -75.99291992 226.6472168 C-76.71123322 229.82000328 -76.76887265 231.60423236 -75.67382812 234.65478516 C-70.01669102 238.42620989 -63.68442685 236.60250271 -57.29882812 235.46728516 C-45.66340392 233.09142048 -36.18230462 227.92989999 -28.91992188 218.33837891 C-22.36223193 208.09917882 -20.68540744 198.79373699 -19.67382812 186.65478516 C-34.85382813 186.65478516 -50.03382813 186.65478516 -65.67382812 186.65478516 Z " fill="#052343" transform="translate(326.673828125,664.34521484375)"/>
<path d="M0 0 C1.50889801 -0.00065712 1.50889801 -0.00065712 3.04827881 -0.00132751 C6.34350607 0.00074752 9.63821221 0.0240179 12.93334961 0.04760742 C15.22976911 0.05320794 17.5261922 0.05747589 19.82261658 0.06047058 C25.84453356 0.07188338 31.86623087 0.10131991 37.88806152 0.13458252 C44.04179921 0.16536035 50.19557264 0.17899238 56.34936523 0.1940918 C68.40741961 0.22619304 80.46525378 0.27893188 92.52319336 0.34057617 C92.52319336 7.93057617 92.52319336 15.52057617 92.52319336 23.34057617 C89.80842773 23.36039551 87.09366211 23.38021484 84.29663086 23.40063477 C75.31197517 23.46763843 66.32743382 23.54527653 57.34291077 23.62810326 C51.8973341 23.67798015 46.45177603 23.72431091 41.00610352 23.76245117 C35.7475619 23.79941272 30.48917914 23.84580207 25.23077393 23.89863968 C23.22783199 23.91712594 21.22485607 23.93225503 19.22186279 23.94392014 C16.40938156 23.96088153 13.59725959 23.98994005 10.78491211 24.02172852 C9.55167961 24.0249688 9.55167961 24.0249688 8.29353333 24.02827454 C2.5258412 24.11117494 -3.40546558 24.51696741 -8.47680664 27.52807617 C-10.14454299 30.5508483 -9.8968289 32.98039809 -9.47680664 36.34057617 C-6.33989362 39.70155441 -2.94541227 40.27289842 1.51846313 40.47860718 C2.68743134 40.48510284 3.85639954 40.49159851 5.06079102 40.49829102 C5.70855499 40.50337173 6.35631897 40.50845245 7.02371216 40.51368713 C8.42705574 40.52436348 9.83041606 40.53299433 11.23378372 40.53980637 C13.4632664 40.55165187 15.69256024 40.57112174 17.92196655 40.59292603 C24.25984297 40.65433146 30.5977009 40.70841449 36.93579102 40.74194336 C40.81797422 40.76302841 44.69981346 40.7984443 48.58179855 40.84270096 C50.05276788 40.85675653 51.52379808 40.86555951 52.99483109 40.86875534 C65.53780336 40.89887459 75.54351806 42.30366553 85.52319336 50.34057617 C92.31954112 57.31577519 93.02653302 64.47074288 92.96069336 73.77807617 C92.98067383 74.77645508 93.0006543 75.77483398 93.02124023 76.8034668 C93.01614724 84.54991822 91.51101723 89.78308938 86.51538086 95.73120117 C76.80606432 104.25820242 67.30732553 106.5030887 54.68408203 106.45410156 C53.69824127 106.45424759 52.71240051 106.45439362 51.69668579 106.45454407 C48.44482202 106.45384855 45.19301585 106.44607298 41.94116211 106.43823242 C39.68386364 106.43636696 37.42656477 106.43494366 35.16926575 106.4339447 C29.23286824 106.4301296 23.29649525 106.42030789 17.36010742 106.40924072 C11.30054048 106.39900497 5.24096958 106.39444244 -0.81860352 106.3894043 C-12.70468373 106.37868474 -24.5907393 106.36109606 -36.47680664 106.34057617 C-36.47680664 98.42057617 -36.47680664 90.50057617 -36.47680664 82.34057617 C-33.59486572 82.32599365 -30.7129248 82.31141113 -27.74365234 82.29638672 C-18.22410343 82.24606062 -8.70471843 82.17946898 0.81466961 82.10486126 C6.58655592 82.06012461 12.3583711 82.0208756 18.13037109 81.99414062 C23.70017295 81.96814075 29.26970158 81.9277615 34.83933449 81.87738991 C36.9647666 81.86069881 39.09024599 81.84919853 41.21573448 81.84296227 C44.1918035 81.83334573 47.16716996 81.80531521 50.14306641 81.77294922 C51.46260818 81.77510185 51.46260818 81.77510185 52.80880737 81.77729797 C57.98019059 81.6977043 61.68255714 81.18121239 65.52319336 77.34057617 C66.00437497 72.63760707 66.00437497 72.63760707 64.21069336 68.46557617 C60.64667587 66.08956452 57.3764071 66.20637674 53.22265625 66.18286133 C51.92022476 66.17259918 50.61779327 66.16233704 49.27589417 66.15176392 C48.23083301 66.14660704 48.23083301 66.14660704 47.1646595 66.14134598 C44.97251124 66.12951269 42.7805561 66.11004313 40.58848572 66.08822632 C34.35544425 66.02679949 28.12241842 65.97283817 21.88916016 65.93920898 C18.07295772 65.91806967 14.25710156 65.88260582 10.44109917 65.83845139 C8.99690309 65.82443032 7.55264567 65.8156009 6.10838509 65.812397 C-6.94318072 65.78041164 -19.62193972 64.86880506 -29.44946289 55.44995117 C-36.08665009 48.30850129 -36.83910529 41.95348747 -36.85180664 32.46557617 C-36.87629883 31.51038086 -36.90079102 30.55518555 -36.92602539 29.57104492 C-36.95799535 21.80234405 -35.2116364 16.60717839 -30.22680664 10.65307617 C-21.00950497 2.9021634 -11.99970148 -0.13905359 0 0 Z " fill="#052343" transform="translate(459.476806640625,739.659423828125)"/>
<path d="M0 0 C0.87215652 -0.00137466 1.74431305 -0.00274933 2.64289856 -0.00416565 C3.59164352 -0.00057037 4.54038849 0.0030249 5.5178833 0.00672913 C6.52308517 0.0065831 7.52828705 0.00643707 8.56394958 0.00628662 C11.88618122 0.00698324 15.20835677 0.01476394 18.53057861 0.02259827 C20.83414682 0.02446334 23.13771543 0.02588682 25.44128418 0.02688599 C31.5042836 0.03070414 37.56725907 0.04052848 43.63024902 0.05158997 C49.81707434 0.06181914 56.00390353 0.06638684 62.19073486 0.07142639 C74.33007 0.08215135 86.46938107 0.09974251 98.60870361 0.12025452 C98.60870361 7.71025452 98.60870361 15.30025452 98.60870361 23.12025452 C95.89393799 23.14007385 93.17917236 23.15989319 90.38214111 23.18031311 C81.39748542 23.24731677 72.41294408 23.32495487 63.42842102 23.4077816 C57.98284436 23.45765849 52.53728629 23.50398926 47.09161377 23.54212952 C41.83307215 23.57909107 36.5746894 23.62548041 31.31628418 23.67831802 C29.31334224 23.69680428 27.31036632 23.71193337 25.30737305 23.72359848 C22.49489182 23.74055988 19.68276985 23.76961839 16.87042236 23.80140686 C15.63718987 23.80464714 15.63718987 23.80464714 14.37904358 23.80795288 C8.61135145 23.89085329 2.68004468 24.29664576 -2.39129639 27.30775452 C-4.05903273 30.33052665 -3.81131865 32.76007643 -3.39129639 36.12025452 C-0.25438336 39.48123276 3.14009799 40.05257677 7.60397339 40.25828552 C8.77294159 40.26478119 9.94190979 40.27127686 11.14630127 40.27796936 C11.79406525 40.28305008 12.44182922 40.2881308 13.10922241 40.29336548 C14.512566 40.30404183 15.91592631 40.31267267 17.31929398 40.31948471 C19.54877665 40.33133021 21.7780705 40.35080009 24.00747681 40.37260437 C30.34535322 40.4340098 36.68321115 40.48809283 43.02130127 40.5216217 C46.90348447 40.54270675 50.78532372 40.57812264 54.66730881 40.6223793 C56.13827814 40.63643487 57.60930833 40.64523785 59.08034134 40.64843369 C71.53916402 40.67835087 82.95363615 41.85644606 92.36651611 50.78822327 C98.65496574 57.66906307 98.97221411 64.48748245 98.98370361 73.49525452 C99.0081958 74.49814514 99.03268799 75.50103577 99.05792236 76.53431702 C99.08851031 84.32404825 97.62520955 89.52861709 92.60089111 95.51087952 C85.38713783 101.84620528 77.0454864 106.25256583 67.25537109 106.24050903 C66.39162872 106.2418837 65.52788635 106.24325836 64.63796997 106.24467468 C63.69857574 106.24107941 62.75918152 106.23748413 61.7913208 106.23377991 C60.7958725 106.23392593 59.80042419 106.23407196 58.77481079 106.23422241 C55.48504455 106.23352584 52.19533496 106.22574532 48.90557861 106.21791077 C46.62443065 106.21604568 44.34328229 106.21462221 42.06213379 106.21362305 C36.05831801 106.209805 30.05452643 106.19998076 24.05072021 106.18891907 C17.92421801 106.17868966 11.7977119 106.17412214 5.67120361 106.16908264 C-6.34964206 106.15835788 -18.37046343 106.14076681 -30.39129639 106.12025452 C-30.39129639 98.20025452 -30.39129639 90.28025452 -30.39129639 82.12025452 C-27.50935547 82.105672 -24.62741455 82.09108948 -21.65814209 82.07606506 C-12.13859318 82.02573897 -2.61920818 81.95914733 6.90017986 81.8845396 C12.67206617 81.83980295 18.44388136 81.80055395 24.21588135 81.77381897 C29.7856832 81.74781909 35.35521183 81.70743984 40.92484474 81.65706825 C43.05027685 81.64037716 45.17575624 81.62887688 47.30124474 81.62264061 C50.27731375 81.61302408 53.25268021 81.58499356 56.22857666 81.55262756 C57.54811844 81.5547802 57.54811844 81.5547802 58.89431763 81.55697632 C63.58801245 81.48473483 66.8390896 81.23698207 70.60870361 78.12025452 C72.12019444 75.03155588 72.91648076 73.22825225 71.98370361 69.87025452 C70.30086554 67.72846061 69.15019745 67.11418903 66.60870361 66.12025452 C63.54056407 65.81311647 63.54056407 65.81311647 60.10284424 65.84901428 C59.13601715 65.84117416 59.13601715 65.84117416 58.1496582 65.83317566 C56.75287807 65.82295496 55.35606006 65.81715862 53.95924377 65.81529427 C51.73752346 65.81161535 49.51624357 65.79484259 47.2946167 65.77453613 C40.97882351 65.71930485 34.66296336 65.68863002 28.34698486 65.66395569 C24.47778509 65.64793282 20.60889212 65.61755254 16.73985291 65.57919121 C15.27611084 65.56765808 13.8123135 65.5616119 12.348526 65.56151009 C-0.53736718 65.56029002 -13.33942535 64.78695633 -23.10614014 55.48744202 C-29.57046531 48.43832459 -30.88553032 42.00287374 -30.76629639 32.68275452 C-30.77789795 31.77976624 -30.78949951 30.87677795 -30.80145264 29.94642639 C-30.76814724 22.280634 -29.55709163 15.56253835 -23.89129639 9.93275452 C-17.49092973 3.91166885 -8.84456364 -0.01078605 0 0 Z " fill="#052343" transform="translate(1189.3912963867188,739.8797454833984)"/>
<path d="M0 0 C0.75373901 -0.00671722 1.50747803 -0.01343445 2.28405762 -0.02035522 C4.76341442 -0.03927259 7.24249944 -0.0432567 9.72192383 -0.04541016 C11.4581971 -0.05184414 13.19446931 -0.05857294 14.93074036 -0.06558228 C18.56794749 -0.07754063 22.20505976 -0.08126476 25.84228516 -0.08007812 C30.47775079 -0.07987541 35.11260008 -0.10713456 39.74792004 -0.14162254 C43.33499379 -0.16398723 46.9219217 -0.1679127 50.509058 -0.16685867 C52.21650623 -0.16920191 53.92395928 -0.17795252 55.63133812 -0.19352341 C68.9372094 -0.30347682 80.79488173 1.08160024 91.24145508 10.29052734 C95.54479707 15.71603268 97.35319342 20.40700354 97.43432617 27.34741211 C97.4503891 28.59623672 97.46645203 29.84506134 97.48300171 31.13172913 C97.4944941 32.49845697 97.50510181 33.8651925 97.51489258 35.23193359 C97.52287809 36.2682105 97.52287809 36.2682105 97.53102493 37.32542229 C97.55774189 40.98736332 97.57711504 44.64927055 97.59155273 48.3112793 C97.60484844 51.32689034 97.63261998 54.34181769 97.67358398 57.35717773 C97.72321439 61.01119035 97.74771115 64.66458685 97.75477982 68.31892204 C97.76144566 69.70347765 97.77654449 71.08802206 97.80067062 72.4723835 C97.95735103 82.01264796 97.09668339 89.7872493 90.59262085 97.15943909 C83.28402916 104.31328908 73.06119179 106.4301858 63.19067383 106.38818359 C62.53186722 106.38676865 61.87306061 106.3853537 61.19429016 106.38389587 C59.10579746 106.37833235 57.01741497 106.36578681 54.92895508 106.35302734 C53.50643059 106.34800762 52.08390441 106.34344554 50.66137695 106.33935547 C47.18799382 106.32922899 43.71484672 106.30964693 40.24145508 106.29052734 C40.24145508 98.37052734 40.24145508 90.45052734 40.24145508 82.29052734 C51.42895508 81.97802734 51.42895508 81.97802734 54.9296875 81.90258789 C55.85112549 81.8694751 56.77256348 81.8363623 57.72192383 81.80224609 C58.65931396 81.77606201 59.5967041 81.74987793 60.5625 81.72290039 C63.71718917 81.21374569 65.6472251 80.12750423 68.24145508 78.29052734 C72.59679716 71.97528133 71.42763743 62.80607276 71.42675781 55.51489258 C71.42893793 53.49392422 71.4471134 51.47350837 71.46606445 49.45263672 C71.93473837 37.28559383 71.93473837 37.28559383 66.92895508 26.79052734 C62.6990394 24.42964418 58.70306704 24.1653152 53.91967773 24.14526367 C52.3624852 24.13569389 52.3624852 24.13569389 50.77383423 24.12593079 C49.66228973 24.12481796 48.55074524 24.12370514 47.40551758 24.12255859 C46.25280365 24.11923019 45.10008972 24.11590179 43.91244507 24.11247253 C41.47654621 24.10741504 39.04064043 24.10506384 36.60473633 24.10522461 C32.88717174 24.10303952 29.16990464 24.08487482 25.45239258 24.06591797 C23.08260192 24.0629835 20.71280986 24.06099906 18.34301758 24.06005859 C17.23552155 24.05287308 16.12802551 24.04568756 14.98696899 24.0382843 C6.88920716 24.00863888 6.88920716 24.00863888 -0.75854492 26.29052734 C-6.04050942 31.85448761 -5.33417714 38.03019416 -5.30444336 45.36425781 C-5.31478104 46.681866 -5.32511871 47.99947418 -5.33576965 49.35700989 C-5.36357471 52.95786345 -5.36703558 56.55837314 -5.36604977 60.15931845 C-5.36918364 63.92701976 -5.39481167 67.69456729 -5.41802979 71.46218872 C-5.45855715 78.59122111 -5.47892277 85.7201621 -5.49200368 92.84929192 C-5.50788483 100.96785907 -5.54630511 109.08627093 -5.58659697 117.20474792 C-5.66895131 133.89998529 -5.7200961 150.59512235 -5.75854492 167.29052734 C-14.33854492 167.29052734 -22.91854492 167.29052734 -31.75854492 167.29052734 C-31.85121637 148.39269567 -31.922562 129.49492837 -31.96579361 110.5969162 C-31.98640206 101.82185623 -32.01448971 93.04694022 -32.06030273 84.27197266 C-32.10022321 76.62199636 -32.12599022 68.97212433 -32.1348989 61.32204676 C-32.14010486 57.27289067 -32.15230464 53.22403285 -32.18146515 49.17497253 C-32.20871683 45.359871 -32.21697041 41.54518917 -32.21097565 37.72999954 C-32.21207155 36.33363689 -32.21996756 34.93725946 -32.23536682 33.54098129 C-32.31811298 25.64772742 -32.03050047 20.02790948 -27.75854492 13.29052734 C-27.22229492 12.42427734 -26.68604492 11.55802734 -26.13354492 10.66552734 C-18.92969178 3.4616742 -10.08437958 -0.01306013 0 0 Z " fill="#052343" transform="translate(1041.758544921875,739.70947265625)"/>
<path d="M0 0 C1.68475045 -0.00457011 3.36949905 -0.00987813 5.054245 -0.0158844 C8.57522176 -0.02478607 12.09597136 -0.02242723 15.61694336 -0.01245117 C20.09869083 -0.00098189 24.57964795 -0.0211564 29.06129169 -0.05036831 C32.53861868 -0.06883924 36.0157602 -0.06841605 39.49312401 -0.06273079 C41.14391371 -0.06257881 42.794717 -0.0685193 44.44545937 -0.08102226 C57.29996284 -0.16466494 68.63971107 0.97143512 78.85546875 9.55859375 C81.54346811 12.29215242 83.0689147 14.96919764 84.69921875 18.43359375 C85.02921875 19.09359375 85.35921875 19.75359375 85.69921875 20.43359375 C86.0240947 24.25972771 86.02395649 28.095385 86.07421875 31.93359375 C86.13029297 33.51140625 86.13029297 33.51140625 86.1875 35.12109375 C86.27073835 42.59404812 84.98618192 48.22493879 80.69921875 54.43359375 C73.75996047 61.46794794 63.3554585 65.19278215 53.5612793 65.54711914 C52.4144165 65.54188232 51.26755371 65.53664551 50.0859375 65.53125 C48.21518555 65.52641602 48.21518555 65.52641602 46.30664062 65.52148438 C45.01306641 65.51310547 43.71949219 65.50472656 42.38671875 65.49609375 C40.41735352 65.48932617 40.41735352 65.48932617 38.40820312 65.48242188 C35.17185547 65.47065334 31.9355313 65.45271838 28.69921875 65.43359375 C28.69921875 57.51359375 28.69921875 49.59359375 28.69921875 41.43359375 C39.26171875 41.12109375 39.26171875 41.12109375 42.54907227 41.0456543 C48.2893818 40.82863036 52.66368603 40.27917667 57.69921875 37.43359375 C60.00182634 34.61761188 60.00182634 34.61761188 59.57421875 31.43359375 C58.93329812 28.43190349 58.93329812 28.43190349 57.07421875 26.62109375 C50.61143204 23.38970039 42.48473705 24.27259617 35.44921875 24.265625 C34.27713867 24.2622966 33.10505859 24.2589682 31.89746094 24.25553894 C29.42643627 24.25049037 26.95540482 24.24812997 24.484375 24.24829102 C20.71212538 24.24610124 16.94016683 24.2279142 13.16796875 24.20898438 C10.76171975 24.20605066 8.35546936 24.20406572 5.94921875 24.203125 C4.82612305 24.19593948 3.70302734 24.18875397 2.54589844 24.18135071 C-3.07975137 24.19770995 -8.07708361 24.22460864 -13.30078125 26.43359375 C-15.90216262 29.25198643 -16.67828964 31.12946489 -16.70483398 34.93920898 C-16.72386024 36.26594887 -16.72386024 36.26594887 -16.74327087 37.61949158 C-16.74033524 38.56748123 -16.7373996 39.51547089 -16.734375 40.4921875 C-16.74223778 41.9641433 -16.74223778 41.9641433 -16.7502594 43.46583557 C-16.75667773 45.53946996 -16.75534506 47.61314076 -16.74682617 49.68676758 C-16.73832097 52.85629263 -16.76707312 56.02401256 -16.79882812 59.19335938 C-16.80044038 61.20963488 -16.79986213 63.22591357 -16.796875 65.2421875 C-16.80810898 66.18815292 -16.81934296 67.13411835 -16.83091736 68.10874939 C-16.78595625 72.3630648 -16.68276957 74.79654185 -14.45727539 78.50805664 C-10.2720332 82.24506617 -5.54823376 81.60409777 -0.23950195 81.63891602 C1.15103897 81.65376541 1.15103897 81.65376541 2.56967163 81.66891479 C5.6375675 81.70053311 8.70547886 81.72528861 11.7734375 81.75 C13.89907741 81.77056923 16.02471322 81.7915657 18.15034485 81.81297302 C23.74806404 81.86819681 29.34582016 81.91760478 34.94360352 81.96582031 C40.65449312 82.01603306 46.36532901 82.07172031 52.07617188 82.12695312 C63.28381001 82.23453849 74.49149371 82.33547686 85.69921875 82.43359375 C85.69921875 90.35359375 85.69921875 98.27359375 85.69921875 106.43359375 C72.62460054 106.52422752 59.55019351 106.59750144 46.47533131 106.64084244 C40.4031125 106.66165162 34.33112115 106.68984703 28.2590332 106.73535156 C22.39106216 106.77904755 16.52330889 106.80278092 10.65518761 106.81310272 C8.42465478 106.8204516 6.19413287 106.83480145 3.96369362 106.85651398 C-24.8663379 107.12581506 -24.8663379 107.12581506 -35.6484375 98.14453125 C-41.33100142 92.26045797 -43.40194673 86.59329603 -43.4777832 78.52270508 C-43.49061844 77.33079056 -43.50345367 76.13887604 -43.51667786 74.9108429 C-43.52775826 72.98271004 -43.52775826 72.98271004 -43.5390625 71.015625 C-43.54313803 70.35754034 -43.54721355 69.69945568 -43.55141258 69.02142906 C-43.57223843 65.53569228 -43.58655314 62.04999442 -43.59594727 58.56420898 C-43.60698342 54.98444521 -43.64135982 51.40530786 -43.68111897 47.82576466 C-43.70741158 45.05544471 -43.71565035 42.28527097 -43.71922874 39.51483727 C-43.72639913 37.5601601 -43.75278469 35.60558341 -43.77961731 33.65107727 C-43.75469804 23.36439416 -41.7261639 15.8589764 -34.30078125 8.43359375 C-23.72737544 0.29485375 -12.7667777 -0.03044943 0 0 Z " fill="#052343" transform="translate(1351.30078125,739.56640625)"/>
<path d="M0 0 C13.3526567 -0.0905879 26.70510726 -0.1638815 40.05800247 -0.20724869 C46.25916263 -0.22806912 52.46010053 -0.25628549 58.66113281 -0.30175781 C64.65229204 -0.34541316 70.64323829 -0.36917875 76.63454437 -0.37950897 C78.91335143 -0.38686506 81.19214764 -0.4012293 83.47086334 -0.42292023 C111.93379204 -0.68293197 111.93379204 -0.68293197 123 9 C127.46863061 14.67636861 129.23889701 20.04449244 129.29052734 27.22973633 C129.30328705 28.44152054 129.31604675 29.65330475 129.32919312 30.90180969 C129.33141876 32.19878281 129.33364441 33.49575592 129.3359375 34.83203125 C129.34237442 36.19195187 129.34910343 37.55187113 129.35610962 38.91178894 C129.36805257 41.75706183 129.3717936 44.6022136 129.37060547 47.44750977 C129.37040258 51.07209808 129.39768616 54.69589974 129.43214989 58.32030201 C129.45452041 61.12838727 129.45843992 63.93628633 129.45738602 66.74445152 C129.46085673 68.72347715 129.48245578 70.70244466 129.50448608 72.68135071 C129.46032718 81.44559305 127.86466914 87.26227796 123.375 94.6875 C112.31536565 105.45609134 98.93285052 106.47666132 84.328125 106.46875 C82.71685529 106.47586931 81.10558805 106.48357082 79.49432373 106.49182129 C76.12895655 106.50520556 72.7638237 106.50686301 69.3984375 106.50097656 C65.12414554 106.49509497 60.85099513 106.52563567 56.57692337 106.56609344 C53.25134416 106.59217713 49.92603205 106.5948292 46.60036469 106.59120178 C45.02656952 106.59287469 43.45275948 106.60233704 41.87906647 106.62034607 C27.60774431 106.7656851 15.88872675 104.55260456 4.98828125 94.4765625 C-0.27457346 87.9212582 -0.52112458 81.8257446 -0.5 73.6875 C-0.52835938 72.70587891 -0.55671875 71.72425781 -0.5859375 70.71289062 C-0.60696082 62.77133272 1.3367759 56.17956839 6.64892578 50.11865234 C13.99181625 42.99015284 24.1633858 40.86026973 34.05078125 40.90234375 C34.70958786 40.9037587 35.36839447 40.90517365 36.04716492 40.90663147 C38.13565762 40.912195 40.22404011 40.92474053 42.3125 40.9375 C43.73502449 40.94251972 45.15755066 40.9470818 46.58007812 40.95117188 C50.05346126 40.96129836 53.52660836 40.98088041 57 41 C57 48.92 57 56.84 57 65 C45.375 65.375 45.375 65.375 41.74365234 65.47802734 C36.50444337 65.67246314 31.8886505 65.89016136 27 68 C27 71.63 27 75.26 27 79 C31.27513786 80.61547567 34.82288783 81.25538813 39.38500977 81.2746582 C40.62972549 81.28419022 41.87444122 81.29372223 43.15687561 81.30354309 C44.50171945 81.30328169 45.8465633 81.30234478 47.19140625 81.30078125 C48.58332954 81.30467261 49.97525165 81.30900818 51.36717224 81.31376648 C54.27631491 81.32120597 57.18533616 81.32095314 60.09448242 81.31567383 C63.81573973 81.30986955 67.53650086 81.32684374 71.25767612 81.3500185 C74.12907294 81.36477083 77.00035049 81.36562575 79.87177849 81.36250877 C81.24366174 81.36302082 82.61555186 81.36823668 83.98739815 81.37832069 C85.90635479 81.39070108 87.82541233 81.38194173 89.74438477 81.37231445 C91.37936668 81.37325859 91.37936668 81.37325859 93.04737854 81.3742218 C96.40590151 80.94855514 98.29087022 79.99827185 101 78 C102.17151209 75.65697582 102.14488783 74.2257726 102.17700195 71.61376953 C102.18983719 70.70587677 102.20267242 69.79798401 102.21589661 68.86257935 C102.22328354 67.87925629 102.23067047 66.89593323 102.23828125 65.8828125 C102.25038887 64.36976028 102.25038887 64.36976028 102.26274109 62.82614136 C102.27658592 60.68928754 102.28730629 58.55241156 102.29516602 56.41552734 C102.31239421 53.14508305 102.35627897 49.87564547 102.40039062 46.60546875 C102.41051601 44.53125745 102.41903259 42.45703754 102.42578125 40.3828125 C102.45204338 38.9139006 102.45204338 38.9139006 102.47883606 37.41531372 C102.5017116 32.16502541 102.5017116 32.16502541 100.41088867 27.47607422 C94.55454219 23.89050755 88.52617806 23.69861269 81.85180664 23.68115234 C80.51891098 23.66608391 80.51891098 23.66608391 79.15908813 23.65071106 C76.24278366 23.61999588 73.32657049 23.60287647 70.41015625 23.5859375 C68.37991049 23.56721647 66.34967243 23.54764236 64.31944275 23.5272522 C58.99140982 23.47602388 53.66335169 23.43634841 48.33520508 23.39910889 C42.89202691 23.35901088 37.44895273 23.307945 32.00585938 23.2578125 C21.33730553 23.16116328 10.66870842 23.07773769 0 23 C0 15.41 0 7.82 0 0 Z " fill="#052343" transform="translate(861,740)"/>
<path d="M0 0 C12.87 0 25.74 0 39 0 C51.23513871 14.45970938 51.23513871 14.45970938 55.3125 19.75 C59.44987558 25.07816209 63.69593283 30.3057178 68 35.5 C72.76542392 41.25106189 77.43266938 47.06291126 82.01635742 52.95947266 C85.99775047 58.05536111 90.17012822 62.97173709 94.39453125 67.8671875 C97.39367412 71.47335329 100.18579598 75.24772797 103 79 C103.33 52.93 103.66 26.86 104 0 C112.25 0 120.5 0 129 0 C129 34.98 129 69.96 129 106 C116.13 106 103.26 106 90 106 C80.91281586 95.77691784 80.91281586 95.77691784 76.8125 90.4375 C72.70924632 85.15531825 68.53922363 79.93392525 64.3125 74.75 C60.23131664 69.74350418 56.17028697 64.72313901 52.14453125 59.671875 C50.44170446 57.55032031 48.7303007 55.43688018 47.01171875 53.328125 C46.46451172 52.65652344 45.91730469 51.98492188 45.35351562 51.29296875 C44.2973226 49.99780121 43.24014955 48.70343175 42.18164062 47.41015625 C36.69161747 40.67776376 31.3707513 33.83550166 26 27 C25.67 53.07 25.34 79.14 25 106 C16.75 106 8.5 106 0 106 C0 71.02 0 36.04 0 0 Z " fill="#052343" transform="translate(712,740)"/>
<path d="M0 0 C30.33719961 -2.94885693 30.33719961 -2.94885693 38.5078125 3.50390625 C41.95255793 6.93676531 44.79570212 10.70910247 47.46899414 14.76342773 C49.99320467 18.45092457 53.01109878 21.68774895 56 25 C59.8125 29.4375 59.8125 29.4375 61.51953125 31.43359375 C62.93469208 33.11019986 62.93469208 33.11019986 65 34 C65.26425781 33.40703125 65.52851562 32.8140625 65.80078125 32.203125 C67.04370425 29.91970946 68.30401646 28.52573277 70.1875 26.75 C72.63598256 24.37176079 74.96071053 21.96200541 77.1875 19.375 C80.48447451 15.55111176 83.88594098 11.83239109 87.3125 8.125 C87.84061279 7.55313965 88.36872559 6.9812793 88.9128418 6.39208984 C94.81864061 0.01264539 94.81864061 0.01264539 98.25634766 -0.22705078 C99.64229295 -0.22673382 101.02826301 -0.21541759 102.4140625 -0.1953125 C103.14370209 -0.1924826 103.87334167 -0.18965271 104.62509155 -0.18673706 C106.95856028 -0.17553002 109.29164703 -0.1504251 111.625 -0.125 C113.20572363 -0.11497085 114.78645327 -0.10584489 116.3671875 -0.09765625 C120.24493914 -0.07558905 124.12240478 -0.04105615 128 0 C125.66896085 3.61521404 123.3349933 6.92047721 120.35546875 10.0234375 C119.67806641 10.735 119.00066406 11.4465625 118.30273438 12.1796875 C117.60470703 12.90414062 116.90667969 13.62859375 116.1875 14.375 C111.55444869 19.21251461 107.00036599 24.08343496 102.61450195 29.14697266 C100.29250115 31.81202423 97.8987318 34.40372559 95.5 37 C91.26027499 41.6049312 87.08199057 46.25457078 83 51 C82.52044357 51.44039612 82.04088715 51.88079224 81.54679871 52.33453369 C77.17125325 56.67616923 76.2918004 60.02271434 76.16775513 66.11143494 C76.17684906 67.12524734 76.18594299 68.13905975 76.1953125 69.18359375 C76.18160614 70.23909927 76.16789978 71.2946048 76.15377808 72.38209534 C76.11655909 75.73433367 76.12018781 79.08508481 76.125 82.4375 C76.1068677 84.71812203 76.08606335 86.99872449 76.0625 89.27929688 C76.00572151 94.85372839 76.00424816 100.42429451 76 106 C67.75 106 59.5 106 51 106 C51.13535156 100.95525391 51.13535156 100.95525391 51.2734375 95.80859375 C51.31316916 92.50186812 51.3285984 89.19584193 51.34179688 85.88891602 C51.36367764 83.61444293 51.41029125 81.34005355 51.48339844 79.06665039 C52.15171173 63.44902055 52.15171173 63.44902055 45.07217407 50.09962463 C42.67846569 47.70578388 40.20327717 45.47298231 37.58346558 43.32977295 C35.62348881 41.683811 33.99277404 39.85386985 32.375 37.875 C29.33260063 34.33840377 26.17216586 30.91974954 23 27.5 C19.20091392 23.40294638 15.44713612 19.28135162 11.80078125 15.046875 C8.59313361 11.40087204 5.25702486 7.86817265 1.94140625 4.3203125 C0 2 0 2 0 0 Z " fill="#052343" transform="translate(568,740)"/>
<path d="M0 0 C117.48 0 234.96 0 356 0 C356 1.65 356 3.3 356 5 C238.52 5 121.04 5 0 5 C0 3.35 0 1.7 0 0 Z " fill="#052343" transform="translate(1082,889)"/>
<path d="M0 0 C6 0 6 0 8.5546875 2.3359375 C9.70324219 3.84027344 9.70324219 3.84027344 10.875 5.375 C11.65617188 6.37273438 12.43734375 7.37046875 13.2421875 8.3984375 C15 11 15 11 15 13 C18.73122999 9.48825413 21.52990533 5.90764204 24.27734375 1.57421875 C26 0 26 0 32 0 C32 9.9 32 19.8 32 30 C30.02 30 28.04 30 26 30 C25.67 24.06 25.34 18.12 25 12 C22.36 15.3 19.72 18.6 17 22 C13.13209997 20.06604999 12.12365764 19.2196994 9.75 15.875 C8.8425 14.59625 7.935 13.3175 7 12 C6.67 17.94 6.34 23.88 6 30 C4.02 30 2.04 30 0 30 C0 20.1 0 10.2 0 0 Z " fill="#052343" transform="translate(756,876)"/>
<path d="M0 0 C4.17452312 2.84626576 7.01596069 5.32720078 8.421875 10.20703125 C9.24133738 15.54173131 8.78896594 19.49748042 6.0625 24.18359375 C3.30582954 27.73608872 -0.06712035 29.48070678 -4.25 30.875 C-9.7284517 31.29641936 -13.43522681 30.549874 -18.25 27.875 C-22.30441256 24.05047681 -24.13182933 20.67710276 -24.5 15.0625 C-24.41357285 10.34357777 -23.21410765 6.86057331 -19.8203125 3.4296875 C-13.85638405 -1.76278752 -7.38956491 -2.55792632 0 0 Z M-15.25 6.875 C-17.4479747 9.58583547 -18.17397877 11.36457172 -18.6875 14.8125 C-18.11244031 18.83791785 -16.94585834 20.8335188 -14.25 23.875 C-10.00433916 25.87767021 -8.03289831 26.09682119 -3.5 24.8125 C-0.0107956 22.73239738 1.26940681 21.62002983 2.75 17.875 C3.33763137 13.92947511 2.91374881 12.19036807 1.0625 8.625 C-1.34915084 5.75709089 -2.67036053 4.79285627 -6.25 3.875 C-10.06307353 3.875 -11.99828878 4.91042447 -15.25 6.875 Z " fill="#052343" transform="translate(722.25,876.125)"/>
<path d="M0 0 C6 0 6 0 7.96630859 1.74414062 C8.52141113 2.54013672 9.07651367 3.33613281 9.6484375 4.15625 C10.26074219 5.01347656 10.87304688 5.87070312 11.50390625 6.75390625 C12.12136719 7.66011719 12.73882813 8.56632813 13.375 9.5 C14.01566406 10.40621094 14.65632812 11.31242188 15.31640625 12.24609375 C16.89539286 14.48495536 18.45007079 16.74092509 20 19 C20.33 12.73 20.66 6.46 21 0 C22.65 0 24.3 0 26 0 C26 9.9 26 19.8 26 30 C20 30 20 30 18.12548828 28.34765625 C17.61228027 27.59355469 17.09907227 26.83945312 16.5703125 26.0625 C16.003125 25.25039063 15.4359375 24.43828125 14.8515625 23.6015625 C14.28179688 22.74304688 13.71203125 21.88453125 13.125 21 C12.53203125 20.14148438 11.9390625 19.28296875 11.328125 18.3984375 C9.8673502 16.27795796 8.43125654 14.14051424 7 12 C6.67 17.94 6.34 23.88 6 30 C4.02 30 2.04 30 0 30 C0 20.1 0 10.2 0 0 Z " fill="#052343" transform="translate(910,876)"/>
<path d="M0 0 C2.31 0 4.62 0 7 0 C10.23255677 6.76304503 13.09761229 13.64148625 15.8125 20.625 C16.12646729 21.43114746 16.44043457 22.23729492 16.76391602 23.06787109 C19 28.86668717 19 28.86668717 19 30 C16.69 30 14.38 30 12 30 C11.34 27.69 10.68 25.38 10 23 C5.71 23 1.42 23 -3 23 C-3.66 25.31 -4.32 27.62 -5 30 C-6.98 30 -8.96 30 -11 30 C-10.34695118 26.10982879 -9.19461184 22.69556088 -7.71484375 19.04296875 C-7.26689453 17.93115234 -6.81894531 16.81933594 -6.35742188 15.67382812 C-5.88884766 14.52333984 -5.42027344 13.37285156 -4.9375 12.1875 C-4.46505859 11.01767578 -3.99261719 9.84785156 -3.50585938 8.64257812 C-2.34111284 5.76012457 -1.17236766 2.87936035 0 0 Z M3 8 C2.01 10.97 1.02 13.94 0 17 C2.31 17 4.62 17 7 17 C6.44271087 13.65626525 5.64826111 10.96687001 4 8 C3.67 8 3.34 8 3 8 Z " fill="#052343" transform="translate(868,876)"/>
<path d="M0 0 C1.65 0 3.3 0 5 0 C5 3.96 5 7.92 5 12 C9.62 12 14.24 12 19 12 C19 8.04 19 4.08 19 0 C20.98 0 22.96 0 25 0 C25 9.9 25 19.8 25 30 C23.02 30 21.04 30 19 30 C19 25.71 19 21.42 19 17 C14.38 17 9.76 17 5 17 C5 21.29 5 25.58 5 30 C3.35 30 1.7 30 0 30 C0 20.1 0 10.2 0 0 Z " fill="#052343" transform="translate(569,876)"/>
<path d="M0 0 C2.866875 -0.103125 5.73375 -0.20625 8.6875 -0.3125 C10.02880981 -0.38078003 10.02880981 -0.38078003 11.3972168 -0.45043945 C15.66947069 -0.52470203 17.49394463 -0.37223328 21.04296875 2.23828125 C23.55118037 5.77781341 23.72721225 7.64159542 23.49609375 11.84375 C22.69457881 15.32749998 20.7960989 16.91918221 18 19 C15.11788698 19.96070434 13.30149956 20.10581883 10.3125 20.0625 C8.889375 20.041875 7.46625 20.02125 6 20 C6 23.3 6 26.6 6 30 C4.02 30 2.04 30 0 30 C0 20.1 0 10.2 0 0 Z M6 5 C6 7.97 6 10.94 6 14 C10.50901363 14.17957899 10.50901363 14.17957899 15 14 C17.2491908 12.17296773 17.2491908 12.17296773 17.25 9.5 C17.2491908 6.82703227 17.2491908 6.82703227 15 5 C11.98173347 4.72759327 9.03629378 4.91324875 6 5 Z " fill="#052343" transform="translate(815,876)"/>
<path d="M0 0 C2.61617384 1.70355506 4.05405328 3.11833584 5.6875 5.75 C4.6975 6.74 3.7075 7.73 2.6875 8.75 C1.9140625 8.316875 1.9140625 8.316875 1.125 7.875 C-4.76800066 5.14754662 -4.76800066 5.14754662 -11.0625 5.4375 C-14.08224921 7.16771971 -14.08224921 7.16771971 -16.3125 9.75 C-17.29194467 13.52785802 -17.66843347 15.82876042 -16.25 19.5 C-13.77518461 22.37397917 -11.92757304 23.5681492 -8.3125 24.75 C-4.31714624 23.99226049 -0.85696227 22.73489887 2.6875 20.75 C3.6775 22.07 4.6675 23.39 5.6875 24.75 C0.72713995 29.04897871 -2.21936345 31.14173707 -9.12109375 31.02734375 C-14.35775404 30.36459352 -18.13701117 27.92548883 -21.8125 24.25 C-24.03696491 19.05958187 -24.04584651 14.31121107 -23.3125 8.75 C-21.19589465 3.81125418 -18.24618466 1.56719449 -13.4609375 -0.55859375 C-8.67623755 -2.09839719 -4.74231072 -1.78955121 0 0 Z " fill="#052343" transform="translate(671.3125,876.25)"/>
<path d="M0 0 C2.76565128 1.45710966 4.60421707 2.55871473 5.828125 5.49609375 C5.84875 6.07359375 5.869375 6.65109375 5.890625 7.24609375 C3.910625 8.23609375 3.910625 8.23609375 1.890625 9.24609375 C1.354375 8.77171875 0.818125 8.29734375 0.265625 7.80859375 C-2.67283647 5.87539541 -4.59363094 5.38672351 -8.109375 5.24609375 C-11.31057683 6.41576365 -13.4083537 7.32202022 -15.484375 10.05859375 C-16.51346357 13.66040374 -16.47803464 16.81241736 -15.546875 20.43359375 C-13.18354845 23.41344027 -10.70641531 24.18467202 -7.109375 25.24609375 C-3.10116055 24.49879953 0.33794469 23.23559472 3.890625 21.24609375 C4.550625 21.90609375 5.210625 22.56609375 5.890625 23.24609375 C5.7421875 25.23046875 5.7421875 25.23046875 4.890625 27.24609375 C1.47256149 29.9471976 -2.34523359 31.13693069 -6.609375 31.74609375 C-12.46407708 30.90970774 -16.55953525 28.95489142 -20.546875 24.55859375 C-23.18208137 18.97195625 -23.73666611 14.46006237 -22.046875 8.49609375 C-17.26405505 0.473299 -9.08621183 -3.24747941 0 0 Z " fill="#052343" transform="translate(538.109375,875.75390625)"/>
<path d="M0 0 C7.26 0 14.52 0 22 0 C22 1.65 22 3.3 22 5 C16.39 5 10.78 5 5 5 C5 7.31 5 9.62 5 12 C9.29 12 13.58 12 18 12 C18 13.65 18 15.3 18 17 C13.71 17 9.42 17 5 17 C5 19.64 5 22.28 5 25 C10.61 25 16.22 25 22 25 C22 26.65 22 28.3 22 30 C14.74 30 7.48 30 0 30 C0 20.1 0 10.2 0 0 Z " fill="#052343" transform="translate(471,876)"/>
<path d="M0 0 C3.125 -0.5625 3.125 -0.5625 7 0 C9.48644002 2.72778747 11.20816957 5.78801913 13 9 C13.99 10.485 13.99 10.485 15 12 C15.42410156 11.13375 15.84820313 10.2675 16.28515625 9.375 C21.01870708 0.38645513 21.01870708 0.38645513 24.0234375 -0.796875 C25.9375 -0.75 25.9375 -0.75 29 0 C28.10464743 1.64609493 27.20868601 3.29185868 26.3125 4.9375 C25.49652344 6.44957031 25.49652344 6.44957031 24.6640625 7.9921875 C23.65733484 9.81185957 22.61883887 11.6151013 21.5234375 13.3828125 C18.14979336 18.88717926 17.14794398 23.55771231 17 30 C15.35 30 13.7 30 12 30 C12.05542969 29.41476562 12.11085938 28.82953125 12.16796875 28.2265625 C12.24393499 18.10785876 6.41681063 10.69155228 0.99389648 2.59130859 C0 1 0 1 0 0 Z " fill="#052343" transform="translate(959,876)"/>
<path d="M0 0 C7.92 0 15.84 0 24 0 C24 1.65 24 3.3 24 5 C21.03 5 18.06 5 15 5 C15 13.25 15 21.5 15 30 C13.02 30 11.04 30 9 30 C9 21.75 9 13.5 9 5 C6.03 5 3.06 5 0 5 C0 3.35 0 1.7 0 0 Z " fill="#052343" transform="translate(423,876)"/>
</svg>
